 <svg  version="1.0" xmlns="http://www.w3.org/2000/svg"  width="270.000000pt" height="187.000000pt" viewBox="0 0 270.000000 187.000000"  preserveAspectRatio="xMidYMid meet">  <g transform="translate(0.000000,187.000000) scale(0.050000,-0.050000)" fill="#032539" stroke="none"> <path d="M1994 3565 c-39 -96 -152 -418 -252 -715 -211 -631 -237 -706 -262 -760 -10 -22 -74 -170 -141 -330 -162 -380 -123 -351 -521 -389 -449 -42 -524 -40 -668 19 -154 64 -150 65 -150 -39 0 -76 6 -89 45 -95 25 -4 43 -18 40 -31 -7 -35 129 -53 212 -28 77 23 152 13 203 -26 17 -12 55 -35 85 -50 30 -15 55 -35 55 -43 0 -18 129 -142 151 -145 9 -2 82 -68 162 -148 80 -80 153 -145 162 -145 8 0 33 -23 55 -51 47 -60 64 -76 130 -129 43 -34 46 -42 20 -61 -25 -19 -25 -21 5 -11 24 7 64 -15 120 -67 47 -43 129 -117 183 -165 54 -47 115 -102 135 -121 48 -45 174 -50 137 -5 -14 17 -33 30 -44 30 -10 0 -52 31 -92 70 -41 38 -83 70 -95 70 -12 0 -56 40 -98 90 -42 49 -84 90 -93 90 -21 0 -298 284 -298 305 0 8 -9 15 -20 15 -11 0 -79 56 -151 125 -72 69 -189 180 -259 246 -147 141 -150 183 -8 150 126 -29 153 -26 200 21 23 23 46 36 52 30 6 -6 28 -2 47 9 59 31 63 -10 9 -90 -58 -85 -61 -102 -18 -119 44 -17 134 80 167 183 15 47 35 85 44 85 40 0 136 133 137 190 1 58 2 59 33 20 30 -38 31 -36 21 34 -9 59 -5 71 18 62 16 -6 28 -3 26 7 -21 116 59 244 111 177 30 -38 30 -37 11 16 -26 73 -26 160 0 144 11 -7 30 13 43 44 12 31 41 97 64 146 24 52 42 133 42 191 1 99 2 100 58 92 l58 -8 -9 103 c-9 97 17 162 51 128 7 -7 13 20 13 60 0 77 41 257 62 274 21 17 86 227 87 284 1 30 9 60 17 68 8 8 14 31 14 51 0 60 69 83 111 36 20 -22 49 -36 64 -30 15 6 22 2 15 -9 -7 -11 -3 -20 9 -20 11 0 21 -31 21 -70 0 -49 9 -70 30 -70 17 0 30 17 30 38 0 27 18 42 55 49 73 13 125 10 125 -9 0 -8 56 -14 125 -12 209 6 377 -12 366 -40 -5 -14 2 -20 19 -13 43 16 169 -32 274 -106 67 -47 91 -56 82 -32 -7 19 11 7 41 -28 29 -35 59 -93 66 -130 l13 -67 -43 53 c-24 29 -108 88 -188 130 l-145 76 -290 1 c-321 0 -417 -31 -525 -172 -25 -32 -66 -85 -92 -118 -25 -33 -55 -93 -67 -135 -11 -41 -37 -111 -57 -155 -41 -90 -99 -275 -109 -348 -8 -51 -50 -108 -50 -66 0 13 -13 24 -30 24 -41 0 -38 -33 5 -59 28 -18 25 -19 -20 -9 -42 9 -55 5 -55 -20 0 -40 -32 -42 -47 -2 -7 17 -26 30 -42 30 -46 0 -37 -31 16 -55 50 -23 82 -97 51 -116 -10 -6 -18 -42 -18 -80 0 -38 -9 -69 -20 -69 -28 0 -25 -47 5 -77 14 -14 26 -61 26 -104 2 -98 -22 -79 -82 64 -37 87 -46 97 -57 62 -18 -54 4 -141 53 -211 21 -30 33 -70 27 -87 -9 -23 -4 -28 20 -19 24 9 29 4 20 -21 -8 -19 -6 -39 3 -45 8 -7 37 -60 64 -118 49 -105 158 -201 201 -174 41 26 63 -90 29 -157 -42 -82 -53 -293 -16 -307 15 -6 27 -31 27 -56 0 -25 14 -56 30 -70 17 -14 30 -46 30 -72 0 -27 9 -48 20 -48 11 0 20 -17 20 -39 0 -21 9 -44 20 -51 27 -16 25 -129 -2 -208 -13 -35 -17 -70 -10 -76 39 -40 94 179 67 264 -11 33 -20 85 -18 115 1 34 -9 55 -26 55 -14 0 -39 41 -53 90 -15 50 -33 90 -40 90 -22 0 -39 129 -26 196 7 36 22 58 34 51 11 -8 14 -4 7 9 -16 25 29 184 52 184 8 0 15 14 15 30 0 36 33 40 46 5 5 -14 16 -18 26 -9 9 9 6 33 -8 55 -13 21 -19 39 -13 39 25 0 63 -53 76 -105 8 -31 28 -55 46 -55 18 0 27 11 21 27 -9 24 20 30 89 16 6 -2 18 -31 25 -66 7 -35 17 -58 23 -52 17 17 152 -25 184 -57 76 -77 311 -17 245 62 -15 18 -17 30 -4 30 11 0 24 -11 29 -25 7 -20 15 -19 40 1 18 15 60 27 94 28 37 1 61 13 61 29 0 15 7 27 15 28 8 0 37 36 64 80 45 73 101 106 101 59 0 -11 -13 -20 -30 -20 -16 0 -30 -14 -30 -30 0 -22 13 -27 48 -19 65 16 73 -7 33 -96 -27 -59 -39 -69 -60 -50 -21 20 -23 15 -11 -25 15 -48 44 -79 74 -80 8 0 9 16 2 35 -9 28 -7 30 14 11 38 -35 33 -196 -7 -236 -37 -37 -45 -130 -12 -130 12 0 1 -29 -25 -65 -62 -88 -116 -189 -116 -220 0 -14 -31 -43 -70 -64 -65 -35 -96 -91 -50 -91 12 0 15 -21 8 -50 -9 -38 -4 -50 20 -50 18 0 32 16 32 39 0 21 9 44 20 51 11 7 20 31 20 53 0 24 17 45 40 51 22 6 40 27 40 48 0 21 8 38 18 38 11 0 29 31 42 69 12 38 41 92 63 120 29 37 37 68 28 105 -14 54 21 166 51 166 10 0 18 14 18 31 0 17 9 26 21 18 12 -7 14 -23 4 -36 -9 -13 -15 -68 -13 -123 2 -73 -11 -125 -48 -195 -28 -52 -45 -101 -37 -108 7 -8 13 1 13 20 0 18 9 33 20 33 25 0 25 -41 1 -79 -10 -16 -11 -39 -3 -50 27 -34 47 -237 23 -222 -12 8 -21 28 -21 46 0 17 -5 26 -12 20 -6 -7 -6 -31 2 -53 22 -72 77 -49 117 48 37 89 109 133 83 50 -7 -22 -4 -40 7 -40 11 0 23 -20 27 -45 8 -57 736 -84 736 -28 0 41 -57 53 -388 81 -402 34 -385 14 -379 449 4 269 0 327 -24 336 -68 26 -153 188 -122 235 76 117 58 228 -47 282 -115 60 -128 106 -82 284 117 447 161 718 162 1002 0 95 13 150 53 230 129 254 215 620 179 762 -20 82 -43 62 -71 -63 -30 -131 -107 -254 -215 -343 -97 -80 -106 -79 -234 26 -197 160 -534 241 -812 195 -76 -13 -147 -23 -159 -23 -12 0 -21 43 -21 98 0 155 -7 162 -149 162 l-125 0 -72 -175z m1142 -567 c29 -11 60 -31 68 -44 9 -16 18 -12 27 12 7 19 30 34 51 34 48 0 49 -32 3 -58 -19 -12 -24 -21 -10 -21 14 -1 25 -13 25 -28 0 -15 23 -37 50 -49 53 -24 62 -55 30 -104 -17 -26 -19 -25 -20 5 0 19 -14 35 -31 35 -17 0 -26 -8 -20 -18 6 -10 0 -23 -14 -28 -14 -5 0 -16 31 -24 75 -20 19 -89 -74 -91 -62 -2 -62 -2 -12 -22 49 -19 49 -20 10 -49 -31 -23 -41 -24 -50 -4 -5 15 -36 26 -68 26 -63 0 -100 49 -39 52 23 0 12 10 -27 25 -75 27 -115 64 -54 49 35 -9 40 -3 32 37 -9 47 -164 69 -164 23 0 -10 -9 -13 -20 -6 -12 7 -16 21 -10 31 12 19 -130 99 -176 99 -16 0 -70 -22 -122 -50 -108 -58 -254 -71 -212 -20 14 17 29 27 34 23 16 -17 116 20 119 43 1 13 3 33 5 43 12 95 453 149 638 79z m-343 -295 c42 -43 87 -90 100 -105 12 -16 55 -53 95 -84 119 -92 94 -154 -27 -65 -37 27 -76 44 -87 37 -11 -7 -14 -3 -7 8 6 12 -38 58 -99 104 l-110 83 -123 -20 c-177 -29 -184 12 -10 60 41 11 75 29 75 40 0 51 119 15 193 -58z m-405 -67 c21 -20 19 -36 -11 -86 -36 -62 -16 -253 21 -193 10 17 25 15 53 -8 38 -30 37 -31 -9 -18 -28 8 -42 6 -35 -6 19 -30 -92 -3 -126 31 -27 27 -31 25 -41 -18 -7 -28 -28 -49 -51 -52 -29 -3 -30 -1 -5 6 18 6 34 26 35 44 6 97 12 140 19 133 19 -19 62 40 62 84 0 78 46 121 88 83z m1132 -87 c0 -32 -156 -109 -220 -109 -21 0 -43 -9 -50 -20 -7 -12 -21 -15 -32 -9 -28 18 -1 49 43 49 22 0 39 9 39 20 0 23 135 95 185 98 19 1 35 -12 35 -29z m-820 -69 c60 -22 125 -40 145 -40 44 0 46 -32 3 -48 -108 -42 -271 -6 -316 69 -44 75 1 80 168 19z m484 -260 c30 -314 26 -353 -34 -292 -38 37 -62 41 -80 12 -7 -11 -40 -20 -74 -20 l-61 0 10 104 c5 57 20 108 32 112 13 4 23 43 23 86 0 43 9 78 20 78 11 0 20 13 20 29 0 29 46 49 100 44 22 -3 34 -42 44 -153z m310 132 c18 -17 -13 -48 -69 -67 -66 -22 -185 19 -185 64 0 28 227 31 254 3z m-701 -470 c134 -47 403 -64 575 -36 107 17 103 26 55 -116 -11 -33 -39 -131 -62 -218 -73 -270 -84 -287 -226 -351 -179 -81 -417 -101 -512 -42 l-66 42 13 125 c30 276 -251 570 -400 421 -37 -36 -34 -56 29 -235 43 -123 56 -332 21 -332 -11 0 -80 59 -153 131 l-132 130 11 125 c15 159 70 503 95 596 l19 73 305 -135 c168 -74 360 -155 428 -178z m-58 265 c16 -16 18 -29 5 -37 -11 -7 -20 -4 -20 6 0 11 -18 24 -40 30 -22 6 -40 20 -40 31 0 25 58 7 95 -30z m-307 -1032 c-13 -44 -14 -44 -30 -5 -29 76 -23 118 13 81 21 -20 27 -46 17 -76z"/> <path d="M2569 1651 c33 -26 102 -41 154 -34 8 1 57 -11 110 -27 110 -34 327 -40 327 -10 0 20 -64 28 -155 21 -25 -2 -88 10 -140 26 -150 47 -346 63 -296 24z"/> <path d="M2652 1463 c-18 -28 -1 -35 158 -63 180 -31 277 -22 287 27 6 32 1 33 -38 12 -41 -22 -282 0 -371 34 -13 6 -30 1 -36 -10z"/> <path d="M1460 1540 c0 -26 13 -40 38 -40 28 0 36 10 28 40 -6 22 -23 40 -38 40 -16 0 -28 -18 -28 -40z"/> <path d="M0 1032 l0 -88 195 -116 c185 -110 391 -256 488 -346 24 -23 51 -42 60 -42 8 0 115 -99 237 -220 213 -211 283 -254 307 -190 6 16 5 28 -3 25 -30 -9 -124 71 -124 106 0 20 -18 42 -41 49 -29 10 -37 24 -28 52 11 35 5 38 -44 25 -52 -12 -54 -11 -29 20 35 42 14 68 -28 33 -31 -26 -42 18 -33 130 2 23 -3 31 -12 19 -27 -39 -91 -54 -77 -18 9 24 3 29 -24 20 -24 -7 -58 12 -104 59 -37 38 -84 70 -103 70 -19 0 -40 9 -47 20 -7 11 1 14 19 8 17 -7 31 -3 31 8 0 12 16 25 35 30 19 5 2 10 -39 12 -40 1 -89 18 -108 37 -19 19 -44 35 -56 35 -54 0 -152 81 -152 124 0 51 -20 58 -55 23 -25 -25 -93 13 -75 43 5 8 -17 20 -48 27 -32 6 -57 23 -57 37 3 72 -8 96 -45 96 -34 0 -40 -13 -40 -88z"/> <path d="M1253 967 c-21 -21 -15 -107 7 -107 11 0 20 27 20 60 0 62 -4 69 -27 47z"/> <path d="M32 721 c-20 -43 -31 -94 -24 -112 19 -51 92 50 92 129 0 83 -22 78 -68 -17z"/> <path d="M3095 72 c-43 -32 -46 -72 -5 -72 17 0 30 13 30 30 0 17 9 30 20 30 11 0 20 9 20 20 0 27 -23 24 -65 -8z"/> </g> </svg> 