 <svg  version="1.0" xmlns="http://www.w3.org/2000/svg"  width="900.000000pt" height="195.000000pt" viewBox="0 0 900.000000 195.000000"  preserveAspectRatio="xMidYMid meet">  <g transform="translate(0.000000,195.000000) scale(0.100000,-0.100000)" fill="#fa991c" stroke="none"> <path d="M462 1437 c-336 -336 -382 -386 -382 -412 0 -27 48 -78 380 -410 255 -255 388 -381 404 -383 18 -2 39 12 85 56 34 33 61 62 61 65 0 3 -148 152 -330 333 -181 180 -330 331 -330 336 0 4 150 156 333 338 l332 329 -65 66 c-39 39 -72 65 -85 64 -13 0 -159 -139 -403 -382z"/> <path d="M6347 1107 c-395 -392 -717 -717 -717 -723 0 -6 29 -39 65 -73 54 -52 67 -60 84 -52 10 6 335 324 721 708 386 384 706 700 711 701 5 2 9 11 9 21 0 23 -111 131 -135 131 -13 0 -282 -261 -738 -713z"/> <path d="M7738 1758 c-32 -34 -57 -66 -56 -72 0 -6 148 -155 328 -331 180 -176 328 -325 328 -332 1 -6 -146 -157 -328 -334 -181 -178 -330 -328 -330 -333 0 -5 29 -38 64 -73 49 -49 67 -62 82 -56 10 4 191 178 401 386 323 320 383 385 383 408 0 24 -61 89 -385 411 -252 250 -393 384 -408 385 -15 1 -39 -16 -79 -59z"/> <path d="M2387 1624 l-22 -26 -5 -496 -5 -497 -352 -3 c-347 -2 -352 -2 -363 18 -7 13 -10 68 -9 139 2 102 0 120 -17 139 -28 33 -82 29 -114 -8 -13 -17 -32 -30 -42 -30 -10 0 -27 -9 -38 -20 -18 -18 -20 -33 -20 -184 0 -164 0 -165 25 -184 14 -11 34 -18 44 -15 20 5 51 -20 51 -42 0 -8 10 -21 22 -29 20 -14 80 -16 459 -16 424 0 436 1 454 20 10 11 23 30 29 43 8 15 21 22 43 23 21 1 39 10 52 25 20 23 20 39 21 513 l0 489 -45 48 c-25 26 -45 54 -45 62 0 22 -44 57 -73 57 -17 0 -36 -10 -50 -26z"/> <path d="M3047 1639 c-9 -5 -24 -24 -33 -42 -9 -18 -34 -51 -56 -75 l-39 -42 3 -450 3 -450 43 -41 c23 -23 45 -52 48 -66 12 -46 86 -59 120 -22 17 19 19 43 24 258 l5 236 341 3 c288 2 344 5 354 17 7 8 20 15 29 15 10 0 27 10 39 23 21 23 22 31 22 268 0 242 0 246 -22 266 -13 12 -32 23 -43 25 -11 2 -21 12 -23 23 -2 11 -13 30 -25 43 l-20 22 -376 0 c-237 0 -382 -4 -394 -11z m661 -336 l3 -113 -276 0 -275 0 0 103 c0 68 4 107 12 115 9 9 79 12 273 10 l260 -3 3 -112z"/> <path d="M4392 1634 c-13 -9 -27 -27 -32 -40 -6 -13 -21 -28 -34 -34 -57 -21 -56 -11 -56 -543 l0 -488 26 -24 c15 -14 32 -25 39 -25 7 0 31 -18 54 -40 l41 -40 398 0 c387 0 399 1 417 20 10 11 23 30 29 42 7 14 21 22 40 23 31 1 76 44 76 73 0 10 -11 30 -25 45 l-26 27 -409 0 c-394 0 -410 1 -420 19 -6 13 -10 150 -10 379 0 335 1 360 18 375 17 15 61 17 425 17 l406 0 20 26 c12 15 21 34 21 44 0 34 -39 70 -76 70 -27 0 -36 5 -44 25 -5 13 -18 33 -30 45 -19 19 -31 20 -423 20 -353 0 -405 -2 -425 -16z"/> </g> </svg> 